<?xml version="1.0" standalone="no"?>
<!DOCTYPE svg PUBLIC "-//W3C//DTD SVG 20010904//EN"
 "http://www.w3.org/TR/2001/REC-SVG-20010904/DTD/svg10.dtd">
<svg version="1.0" xmlns="http://www.w3.org/2000/svg"
 width="700.000000pt" height="700.000000pt" viewBox="0 0 700.000000 700.000000"
 preserveAspectRatio="xMidYMid meet">
<metadata>
Created by potrace 1.11, written by Peter Selinger 2001-2013
</metadata>
<g transform="translate(0.000000,700.000000) scale(0.100000,-0.100000)"
fill="#000000" stroke="none">
<path d="M3345 6990 c-330 -48 -583 -171 -813 -395 -232 -226 -379 -521 -420
-845 -9 -71 -9 -287 1 -370 15 -138 68 -313 137 -450 79 -159 145 -249 305
-415 170 -177 337 -422 461 -675 54 -110 96 -212 118 -288 l15 -53 -37 22
c-101 62 -269 176 -292 199 -3 3 -25 21 -50 41 -25 20 -90 80 -145 133 -289
280 -619 419 -995 418 -295 0 -566 -82 -801 -243 -99 -68 -251 -210 -319 -299
-146 -189 -249 -424 -284 -645 -2 -16 -8 -50 -11 -74 -7 -45 -8 -274 -1 -321
27 -194 67 -330 141 -481 172 -348 463 -603 827 -723 111 -37 125 -40 265 -60
96 -13 257 -14 353 -2 197 25 407 105 585 221 106 69 140 98 265 219 130 126
313 268 441 343 20 11 48 29 64 39 l27 18 -6 -115 c-9 -145 -14 -193 -32 -304
-8 -49 -17 -103 -20 -120 -20 -125 -97 -381 -161 -535 -75 -183 -238 -463
-327 -564 -14 -16 -26 -32 -26 -36 0 -3 -44 -51 -97 -106 -94 -95 -190 -177
-280 -238 -37 -25 -43 -34 -44 -65 -1 -37 0 -172 0 -203 1 -17 70 -18 1310
-18 l1310 0 3 52 c2 29 2 88 0 131 l-4 78 -54 35 c-101 65 -242 193 -350 320
-48 57 -174 229 -174 239 0 2 -15 29 -34 58 -72 112 -166 319 -225 496 -35
104 -86 294 -95 356 -3 22 -7 49 -10 60 -3 18 -7 40 -21 135 -8 47 -15 135
-21 238 -4 84 -3 102 8 96 44 -26 204 -128 208 -133 3 -3 28 -21 55 -40 78
-54 161 -125 276 -235 58 -57 140 -128 182 -160 371 -274 863 -346 1297 -190
212 75 399 200 558 369 431 461 509 1150 193 1700 -133 231 -349 438 -577 553
-207 104 -414 154 -643 155 -270 0 -523 -72 -756 -216 -27 -17 -52 -34 -55
-37 -3 -3 -30 -24 -60 -46 -30 -23 -97 -83 -149 -134 -100 -97 -209 -185 -331
-267 -77 -52 -180 -115 -180 -110 0 2 13 41 29 88 62 181 155 364 288 569 104
159 169 240 310 389 129 137 199 234 271 376 44 85 107 265 118 330 3 22 8 43
10 46 17 28 26 360 12 459 -30 211 -107 418 -222 594 -69 107 -88 129 -206
246 -93 92 -205 175 -321 238 -68 36 -230 102 -267 108 -15 3 -34 7 -42 10
-85 30 -371 50 -485 34z"/>
</g>
</svg>
